<mxfile host="Electron" agent="Mozilla/5.0 (Macintosh; Intel Mac OS X 10_15_7) AppleWebKit/537.36 (KHTML, like Gecko) draw.io/25.0.2 Chrome/128.0.6613.186 Electron/32.2.5 Safari/537.36" version="25.0.2">
  <diagram name="Page-1" id="0dgUzPMn7Px6hvydGWmO">
    <mxGraphModel dx="652" dy="435" grid="1" gridSize="10" guides="1" tooltips="1" connect="1" arrows="1" fold="1" page="1" pageScale="1" pageWidth="827" pageHeight="1169" math="0" shadow="0">
      <root>
        <mxCell id="0" />
        <mxCell id="1" parent="0" />
        <mxCell id="A5ieHPar6F2eom4mDWS9-1" value="&lt;div style=&quot;color: #000000;background-color: #ffffff;font-family: Menlo, Monaco, &#39;Courier New&#39;, monospace;font-weight: normal;font-size: 32px;line-height: 48px;white-space: pre;&quot;&gt;&lt;div&gt;&lt;span style=&quot;color: #000000;&quot;&gt;numbers = [&lt;/span&gt;&lt;span style=&quot;color: #098658;&quot;&gt;10&lt;/span&gt;&lt;span style=&quot;color: #000000;&quot;&gt;, &lt;/span&gt;&lt;span style=&quot;color: #098658;&quot;&gt;20&lt;/span&gt;&lt;span style=&quot;color: #000000;&quot;&gt;, &lt;/span&gt;&lt;span style=&quot;color: #098658;&quot;&gt;30&lt;/span&gt;&lt;span style=&quot;color: #000000;&quot;&gt;, &lt;/span&gt;&lt;span style=&quot;color: #098658;&quot;&gt;40&lt;/span&gt;&lt;span style=&quot;color: #000000;&quot;&gt;, &lt;/span&gt;&lt;span style=&quot;color: #098658;&quot;&gt;50&lt;/span&gt;&lt;span style=&quot;color: #000000;&quot;&gt;]&lt;/span&gt;&lt;/div&gt;&lt;/div&gt;" style="text;whiteSpace=wrap;html=1;" vertex="1" parent="1">
          <mxGeometry x="30" y="40" width="560" height="70" as="geometry" />
        </mxCell>
        <mxCell id="A5ieHPar6F2eom4mDWS9-2" value="" style="rounded=0;whiteSpace=wrap;html=1;fillColor=#ffe6cc;strokeColor=#d79b00;" vertex="1" parent="1">
          <mxGeometry x="240" y="180" width="360" height="110" as="geometry" />
        </mxCell>
        <mxCell id="A5ieHPar6F2eom4mDWS9-3" value="10" style="rounded=0;whiteSpace=wrap;html=1;fontStyle=1;fontSize=17;" vertex="1" parent="1">
          <mxGeometry x="257" y="194" width="60" height="50" as="geometry" />
        </mxCell>
        <mxCell id="A5ieHPar6F2eom4mDWS9-4" value="20" style="rounded=0;whiteSpace=wrap;html=1;fontStyle=1;fontSize=17;" vertex="1" parent="1">
          <mxGeometry x="323.5" y="194" width="60" height="50" as="geometry" />
        </mxCell>
        <mxCell id="A5ieHPar6F2eom4mDWS9-5" value="30" style="rounded=0;whiteSpace=wrap;html=1;fontStyle=1;fontSize=17;" vertex="1" parent="1">
          <mxGeometry x="391" y="194" width="60" height="50" as="geometry" />
        </mxCell>
        <mxCell id="A5ieHPar6F2eom4mDWS9-6" value="40" style="rounded=0;whiteSpace=wrap;html=1;fontStyle=1;fontSize=17;" vertex="1" parent="1">
          <mxGeometry x="458" y="194" width="60" height="50" as="geometry" />
        </mxCell>
        <mxCell id="A5ieHPar6F2eom4mDWS9-7" value="50" style="rounded=0;whiteSpace=wrap;html=1;fontStyle=1;fontSize=17;" vertex="1" parent="1">
          <mxGeometry x="527" y="194" width="60" height="50" as="geometry" />
        </mxCell>
        <mxCell id="A5ieHPar6F2eom4mDWS9-8" value="0x10000" style="text;html=1;align=left;verticalAlign=middle;whiteSpace=wrap;rounded=0;fontStyle=1;fontSize=16;" vertex="1" parent="1">
          <mxGeometry x="240" y="150" width="360" height="30" as="geometry" />
        </mxCell>
        <mxCell id="A5ieHPar6F2eom4mDWS9-9" value="list" style="text;html=1;align=left;verticalAlign=middle;whiteSpace=wrap;rounded=0;fontStyle=1;fontSize=16;" vertex="1" parent="1">
          <mxGeometry x="240" y="290" width="360" height="30" as="geometry" />
        </mxCell>
        <mxCell id="A5ieHPar6F2eom4mDWS9-18" style="edgeStyle=orthogonalEdgeStyle;rounded=0;orthogonalLoop=1;jettySize=auto;html=1;" edge="1" parent="1" source="A5ieHPar6F2eom4mDWS9-10" target="A5ieHPar6F2eom4mDWS9-2">
          <mxGeometry relative="1" as="geometry" />
        </mxCell>
        <mxCell id="A5ieHPar6F2eom4mDWS9-10" value="0x10000" style="rounded=0;whiteSpace=wrap;html=1;fillColor=#dae8fc;strokeColor=#6c8ebf;fontStyle=1;fontSize=19;" vertex="1" parent="1">
          <mxGeometry x="29" y="207.5" width="140" height="55" as="geometry" />
        </mxCell>
        <mxCell id="A5ieHPar6F2eom4mDWS9-16" value="0x14000" style="text;html=1;align=left;verticalAlign=middle;whiteSpace=wrap;rounded=0;fontStyle=1;fontSize=16;" vertex="1" parent="1">
          <mxGeometry x="29" y="180" width="139" height="30" as="geometry" />
        </mxCell>
        <mxCell id="A5ieHPar6F2eom4mDWS9-17" value="numbers" style="text;html=1;align=left;verticalAlign=middle;whiteSpace=wrap;rounded=0;fontStyle=1;fontSize=16;" vertex="1" parent="1">
          <mxGeometry x="30" y="260" width="139" height="30" as="geometry" />
        </mxCell>
        <mxCell id="A5ieHPar6F2eom4mDWS9-19" value="0" style="text;html=1;align=center;verticalAlign=middle;whiteSpace=wrap;rounded=0;fontStyle=1;fontSize=16;" vertex="1" parent="1">
          <mxGeometry x="257" y="245" width="53" height="30" as="geometry" />
        </mxCell>
        <mxCell id="A5ieHPar6F2eom4mDWS9-21" value="2" style="text;html=1;align=center;verticalAlign=middle;whiteSpace=wrap;rounded=0;fontStyle=1;fontSize=16;" vertex="1" parent="1">
          <mxGeometry x="394.5" y="245" width="53" height="30" as="geometry" />
        </mxCell>
        <mxCell id="A5ieHPar6F2eom4mDWS9-22" value="1" style="text;html=1;align=center;verticalAlign=middle;whiteSpace=wrap;rounded=0;fontStyle=1;fontSize=16;" vertex="1" parent="1">
          <mxGeometry x="327" y="245" width="53" height="30" as="geometry" />
        </mxCell>
        <mxCell id="A5ieHPar6F2eom4mDWS9-24" value="3" style="text;html=1;align=center;verticalAlign=middle;whiteSpace=wrap;rounded=0;fontStyle=1;fontSize=16;" vertex="1" parent="1">
          <mxGeometry x="461.5" y="245" width="53" height="30" as="geometry" />
        </mxCell>
        <mxCell id="A5ieHPar6F2eom4mDWS9-25" value="4" style="text;html=1;align=center;verticalAlign=middle;whiteSpace=wrap;rounded=0;fontStyle=1;fontSize=16;" vertex="1" parent="1">
          <mxGeometry x="530.5" y="245" width="53" height="30" as="geometry" />
        </mxCell>
        <mxCell id="A5ieHPar6F2eom4mDWS9-26" value="&lt;div style=&quot;color: #000000;background-color: #ffffff;font-family: Menlo, Monaco, &#39;Courier New&#39;, monospace;font-weight: normal;font-size: 32px;line-height: 48px;white-space: pre;&quot;&gt;&lt;div&gt;&lt;span style=&quot;color: #000000;&quot;&gt;numbers = [&lt;/span&gt;&lt;/div&gt;&lt;div&gt;&lt;span style=&quot;color: #000000;&quot;&gt;        [&lt;/span&gt;&lt;span style=&quot;color: #098658;&quot;&gt;10&lt;/span&gt;&lt;span style=&quot;color: #000000;&quot;&gt;, &lt;/span&gt;&lt;span style=&quot;color: #098658;&quot;&gt;20&lt;/span&gt;&lt;span style=&quot;color: #000000;&quot;&gt;],&lt;/span&gt;&lt;/div&gt;&lt;div&gt;&lt;span style=&quot;color: #000000;&quot;&gt;        [&lt;/span&gt;&lt;span style=&quot;color: #098658;&quot;&gt;30&lt;/span&gt;&lt;span style=&quot;color: #000000;&quot;&gt;, &lt;/span&gt;&lt;span style=&quot;color: #098658;&quot;&gt;40&lt;/span&gt;&lt;span style=&quot;color: #000000;&quot;&gt;],&lt;/span&gt;&lt;/div&gt;&lt;div&gt;&lt;span style=&quot;color: #000000;&quot;&gt;        [&lt;/span&gt;&lt;span style=&quot;color: #098658;&quot;&gt;50&lt;/span&gt;&lt;span style=&quot;color: #000000;&quot;&gt;, &lt;/span&gt;&lt;span style=&quot;color: #098658;&quot;&gt;60&lt;/span&gt;&lt;span style=&quot;color: #000000;&quot;&gt;]&lt;/span&gt;&lt;/div&gt;&lt;div&gt;&lt;span style=&quot;color: #000000;&quot;&gt;    ]&lt;/span&gt;&lt;/div&gt;&lt;/div&gt;" style="text;whiteSpace=wrap;html=1;" vertex="1" parent="1">
          <mxGeometry x="34.5" y="360" width="360" height="260" as="geometry" />
        </mxCell>
        <mxCell id="A5ieHPar6F2eom4mDWS9-27" value="" style="rounded=0;whiteSpace=wrap;html=1;fillColor=#ffe6cc;strokeColor=#d79b00;" vertex="1" parent="1">
          <mxGeometry x="245.5" y="670" width="344.5" height="90" as="geometry" />
        </mxCell>
        <mxCell id="A5ieHPar6F2eom4mDWS9-66" style="edgeStyle=orthogonalEdgeStyle;rounded=0;orthogonalLoop=1;jettySize=auto;html=1;entryX=0.5;entryY=0;entryDx=0;entryDy=0;" edge="1" parent="1" source="A5ieHPar6F2eom4mDWS9-28" target="A5ieHPar6F2eom4mDWS9-52">
          <mxGeometry relative="1" as="geometry">
            <Array as="points">
              <mxPoint x="310" y="800" />
              <mxPoint x="200" y="800" />
            </Array>
          </mxGeometry>
        </mxCell>
        <mxCell id="A5ieHPar6F2eom4mDWS9-28" value="0x15000" style="rounded=0;whiteSpace=wrap;html=1;fontStyle=1;fontSize=17;" vertex="1" parent="1">
          <mxGeometry x="261.25" y="710" width="97.5" height="36" as="geometry" />
        </mxCell>
        <mxCell id="A5ieHPar6F2eom4mDWS9-33" value="0x10000" style="text;html=1;align=left;verticalAlign=middle;whiteSpace=wrap;rounded=0;fontStyle=1;fontSize=16;" vertex="1" parent="1">
          <mxGeometry x="245.5" y="640" width="360" height="30" as="geometry" />
        </mxCell>
        <mxCell id="A5ieHPar6F2eom4mDWS9-35" style="edgeStyle=orthogonalEdgeStyle;rounded=0;orthogonalLoop=1;jettySize=auto;html=1;" edge="1" parent="1" source="A5ieHPar6F2eom4mDWS9-36" target="A5ieHPar6F2eom4mDWS9-27">
          <mxGeometry relative="1" as="geometry" />
        </mxCell>
        <mxCell id="A5ieHPar6F2eom4mDWS9-36" value="0x10000" style="rounded=0;whiteSpace=wrap;html=1;fillColor=#dae8fc;strokeColor=#6c8ebf;fontStyle=1;fontSize=19;" vertex="1" parent="1">
          <mxGeometry x="34.5" y="687.5" width="140" height="55" as="geometry" />
        </mxCell>
        <mxCell id="A5ieHPar6F2eom4mDWS9-37" value="0x14000" style="text;html=1;align=left;verticalAlign=middle;whiteSpace=wrap;rounded=0;fontStyle=1;fontSize=16;" vertex="1" parent="1">
          <mxGeometry x="34.5" y="657.5" width="139" height="30" as="geometry" />
        </mxCell>
        <mxCell id="A5ieHPar6F2eom4mDWS9-38" value="numbers" style="text;html=1;align=left;verticalAlign=middle;whiteSpace=wrap;rounded=0;fontStyle=1;fontSize=16;" vertex="1" parent="1">
          <mxGeometry x="35.5" y="742.5" width="139" height="30" as="geometry" />
        </mxCell>
        <mxCell id="A5ieHPar6F2eom4mDWS9-39" value="0" style="text;html=1;align=center;verticalAlign=middle;whiteSpace=wrap;rounded=0;fontStyle=1;fontSize=16;" vertex="1" parent="1">
          <mxGeometry x="261.25" y="680" width="97.5" height="30" as="geometry" />
        </mxCell>
        <mxCell id="A5ieHPar6F2eom4mDWS9-44" value="" style="rounded=0;whiteSpace=wrap;html=1;fillColor=#ffe6cc;strokeColor=#d79b00;" vertex="1" parent="1">
          <mxGeometry x="125" y="890" width="159" height="110" as="geometry" />
        </mxCell>
        <mxCell id="A5ieHPar6F2eom4mDWS9-45" value="10" style="rounded=0;whiteSpace=wrap;html=1;fontStyle=1;fontSize=17;" vertex="1" parent="1">
          <mxGeometry x="142" y="904" width="60" height="50" as="geometry" />
        </mxCell>
        <mxCell id="A5ieHPar6F2eom4mDWS9-46" value="20" style="rounded=0;whiteSpace=wrap;html=1;fontStyle=1;fontSize=17;" vertex="1" parent="1">
          <mxGeometry x="208.5" y="903" width="60" height="50" as="geometry" />
        </mxCell>
        <mxCell id="A5ieHPar6F2eom4mDWS9-48" value="0" style="text;html=1;align=center;verticalAlign=middle;whiteSpace=wrap;rounded=0;fontStyle=1;fontSize=16;" vertex="1" parent="1">
          <mxGeometry x="142" y="955" width="53" height="30" as="geometry" />
        </mxCell>
        <mxCell id="A5ieHPar6F2eom4mDWS9-50" value="1" style="text;html=1;align=center;verticalAlign=middle;whiteSpace=wrap;rounded=0;fontStyle=1;fontSize=16;" vertex="1" parent="1">
          <mxGeometry x="212" y="955" width="53" height="30" as="geometry" />
        </mxCell>
        <mxCell id="A5ieHPar6F2eom4mDWS9-52" value="0x15000" style="text;html=1;align=center;verticalAlign=middle;whiteSpace=wrap;rounded=0;fontStyle=1;fontSize=16;" vertex="1" parent="1">
          <mxGeometry x="120" y="860" width="162" height="30" as="geometry" />
        </mxCell>
        <mxCell id="A5ieHPar6F2eom4mDWS9-53" value="" style="rounded=0;whiteSpace=wrap;html=1;fillColor=#ffe6cc;strokeColor=#d79b00;" vertex="1" parent="1">
          <mxGeometry x="338" y="890" width="159" height="110" as="geometry" />
        </mxCell>
        <mxCell id="A5ieHPar6F2eom4mDWS9-54" value="30" style="rounded=0;whiteSpace=wrap;html=1;fontStyle=1;fontSize=17;" vertex="1" parent="1">
          <mxGeometry x="355" y="904" width="60" height="50" as="geometry" />
        </mxCell>
        <mxCell id="A5ieHPar6F2eom4mDWS9-55" value="40" style="rounded=0;whiteSpace=wrap;html=1;fontStyle=1;fontSize=17;" vertex="1" parent="1">
          <mxGeometry x="421.5" y="904" width="60" height="50" as="geometry" />
        </mxCell>
        <mxCell id="A5ieHPar6F2eom4mDWS9-56" value="0" style="text;html=1;align=center;verticalAlign=middle;whiteSpace=wrap;rounded=0;fontStyle=1;fontSize=16;" vertex="1" parent="1">
          <mxGeometry x="355" y="955" width="53" height="30" as="geometry" />
        </mxCell>
        <mxCell id="A5ieHPar6F2eom4mDWS9-57" value="1" style="text;html=1;align=center;verticalAlign=middle;whiteSpace=wrap;rounded=0;fontStyle=1;fontSize=16;" vertex="1" parent="1">
          <mxGeometry x="425" y="955" width="53" height="30" as="geometry" />
        </mxCell>
        <mxCell id="A5ieHPar6F2eom4mDWS9-58" value="0x16000" style="text;html=1;align=center;verticalAlign=middle;whiteSpace=wrap;rounded=0;fontStyle=1;fontSize=16;" vertex="1" parent="1">
          <mxGeometry x="335" y="860" width="162" height="30" as="geometry" />
        </mxCell>
        <mxCell id="A5ieHPar6F2eom4mDWS9-59" value="" style="rounded=0;whiteSpace=wrap;html=1;fillColor=#ffe6cc;strokeColor=#d79b00;" vertex="1" parent="1">
          <mxGeometry x="553" y="889" width="159" height="110" as="geometry" />
        </mxCell>
        <mxCell id="A5ieHPar6F2eom4mDWS9-60" value="50" style="rounded=0;whiteSpace=wrap;html=1;fontStyle=1;fontSize=17;" vertex="1" parent="1">
          <mxGeometry x="570" y="903" width="60" height="50" as="geometry" />
        </mxCell>
        <mxCell id="A5ieHPar6F2eom4mDWS9-61" value="60" style="rounded=0;whiteSpace=wrap;html=1;fontStyle=1;fontSize=17;" vertex="1" parent="1">
          <mxGeometry x="636.5" y="903" width="60" height="50" as="geometry" />
        </mxCell>
        <mxCell id="A5ieHPar6F2eom4mDWS9-62" value="0" style="text;html=1;align=center;verticalAlign=middle;whiteSpace=wrap;rounded=0;fontStyle=1;fontSize=16;" vertex="1" parent="1">
          <mxGeometry x="570" y="954" width="53" height="30" as="geometry" />
        </mxCell>
        <mxCell id="A5ieHPar6F2eom4mDWS9-63" value="1" style="text;html=1;align=center;verticalAlign=middle;whiteSpace=wrap;rounded=0;fontStyle=1;fontSize=16;" vertex="1" parent="1">
          <mxGeometry x="640" y="954" width="53" height="30" as="geometry" />
        </mxCell>
        <mxCell id="A5ieHPar6F2eom4mDWS9-64" value="0x17000" style="text;html=1;align=center;verticalAlign=middle;whiteSpace=wrap;rounded=0;fontStyle=1;fontSize=16;" vertex="1" parent="1">
          <mxGeometry x="550" y="859" width="162" height="30" as="geometry" />
        </mxCell>
        <mxCell id="A5ieHPar6F2eom4mDWS9-69" style="edgeStyle=orthogonalEdgeStyle;rounded=0;orthogonalLoop=1;jettySize=auto;html=1;" edge="1" parent="1" source="A5ieHPar6F2eom4mDWS9-67" target="A5ieHPar6F2eom4mDWS9-58">
          <mxGeometry relative="1" as="geometry" />
        </mxCell>
        <mxCell id="A5ieHPar6F2eom4mDWS9-67" value="0x16000" style="rounded=0;whiteSpace=wrap;html=1;fontStyle=1;fontSize=17;" vertex="1" parent="1">
          <mxGeometry x="367.25" y="710" width="97.5" height="36" as="geometry" />
        </mxCell>
        <mxCell id="A5ieHPar6F2eom4mDWS9-68" value="1" style="text;html=1;align=center;verticalAlign=middle;whiteSpace=wrap;rounded=0;fontStyle=1;fontSize=16;" vertex="1" parent="1">
          <mxGeometry x="367.25" y="680" width="97.5" height="30" as="geometry" />
        </mxCell>
        <mxCell id="A5ieHPar6F2eom4mDWS9-72" style="edgeStyle=orthogonalEdgeStyle;rounded=0;orthogonalLoop=1;jettySize=auto;html=1;entryX=0.5;entryY=0;entryDx=0;entryDy=0;" edge="1" parent="1" source="A5ieHPar6F2eom4mDWS9-70" target="A5ieHPar6F2eom4mDWS9-64">
          <mxGeometry relative="1" as="geometry" />
        </mxCell>
        <mxCell id="A5ieHPar6F2eom4mDWS9-70" value="0x17000" style="rounded=0;whiteSpace=wrap;html=1;fontStyle=1;fontSize=17;" vertex="1" parent="1">
          <mxGeometry x="480" y="710" width="97.5" height="36" as="geometry" />
        </mxCell>
        <mxCell id="A5ieHPar6F2eom4mDWS9-71" value="2" style="text;html=1;align=center;verticalAlign=middle;whiteSpace=wrap;rounded=0;fontStyle=1;fontSize=16;" vertex="1" parent="1">
          <mxGeometry x="480" y="680" width="97.5" height="20" as="geometry" />
        </mxCell>
        <mxCell id="A5ieHPar6F2eom4mDWS9-73" value="" style="rounded=0;whiteSpace=wrap;html=1;fillColor=#ffe6cc;strokeColor=#d79b00;" vertex="1" parent="1">
          <mxGeometry x="881" y="140" width="360" height="150" as="geometry" />
        </mxCell>
        <mxCell id="A5ieHPar6F2eom4mDWS9-74" value="10" style="rounded=0;whiteSpace=wrap;html=1;fontStyle=1;fontSize=17;" vertex="1" parent="1">
          <mxGeometry x="898" y="194" width="60" height="50" as="geometry" />
        </mxCell>
        <mxCell id="A5ieHPar6F2eom4mDWS9-75" value="20" style="rounded=0;whiteSpace=wrap;html=1;fontStyle=1;fontSize=17;" vertex="1" parent="1">
          <mxGeometry x="964.5" y="194" width="60" height="50" as="geometry" />
        </mxCell>
        <mxCell id="A5ieHPar6F2eom4mDWS9-76" value="30" style="rounded=0;whiteSpace=wrap;html=1;fontStyle=1;fontSize=17;" vertex="1" parent="1">
          <mxGeometry x="1032" y="194" width="60" height="50" as="geometry" />
        </mxCell>
        <mxCell id="A5ieHPar6F2eom4mDWS9-77" value="40" style="rounded=0;whiteSpace=wrap;html=1;fontStyle=1;fontSize=17;" vertex="1" parent="1">
          <mxGeometry x="1099" y="193" width="60" height="50" as="geometry" />
        </mxCell>
        <mxCell id="A5ieHPar6F2eom4mDWS9-78" value="50" style="rounded=0;whiteSpace=wrap;html=1;fontStyle=1;fontSize=17;" vertex="1" parent="1">
          <mxGeometry x="1168" y="194" width="60" height="50" as="geometry" />
        </mxCell>
        <mxCell id="A5ieHPar6F2eom4mDWS9-79" value="0x10000" style="text;html=1;align=left;verticalAlign=middle;whiteSpace=wrap;rounded=0;fontStyle=1;fontSize=16;" vertex="1" parent="1">
          <mxGeometry x="881" y="100" width="360" height="30" as="geometry" />
        </mxCell>
        <mxCell id="A5ieHPar6F2eom4mDWS9-80" value="list" style="text;html=1;align=left;verticalAlign=middle;whiteSpace=wrap;rounded=0;fontStyle=1;fontSize=16;" vertex="1" parent="1">
          <mxGeometry x="881" y="290" width="360" height="30" as="geometry" />
        </mxCell>
        <mxCell id="A5ieHPar6F2eom4mDWS9-81" style="edgeStyle=orthogonalEdgeStyle;rounded=0;orthogonalLoop=1;jettySize=auto;html=1;" edge="1" parent="1" source="A5ieHPar6F2eom4mDWS9-82" target="A5ieHPar6F2eom4mDWS9-73">
          <mxGeometry relative="1" as="geometry" />
        </mxCell>
        <mxCell id="A5ieHPar6F2eom4mDWS9-82" value="0x10000" style="rounded=0;whiteSpace=wrap;html=1;fillColor=#dae8fc;strokeColor=#6c8ebf;fontStyle=1;fontSize=19;" vertex="1" parent="1">
          <mxGeometry x="670" y="187.5" width="140" height="55" as="geometry" />
        </mxCell>
        <mxCell id="A5ieHPar6F2eom4mDWS9-83" value="0x14000" style="text;html=1;align=left;verticalAlign=middle;whiteSpace=wrap;rounded=0;fontStyle=1;fontSize=16;" vertex="1" parent="1">
          <mxGeometry x="670" y="160" width="139" height="30" as="geometry" />
        </mxCell>
        <mxCell id="A5ieHPar6F2eom4mDWS9-84" value="numbers" style="text;html=1;align=left;verticalAlign=middle;whiteSpace=wrap;rounded=0;fontStyle=1;fontSize=16;" vertex="1" parent="1">
          <mxGeometry x="671" y="240" width="139" height="30" as="geometry" />
        </mxCell>
        <mxCell id="A5ieHPar6F2eom4mDWS9-85" value="0" style="text;html=1;align=center;verticalAlign=middle;whiteSpace=wrap;rounded=0;fontStyle=1;fontSize=16;" vertex="1" parent="1">
          <mxGeometry x="898" y="245" width="53" height="30" as="geometry" />
        </mxCell>
        <mxCell id="A5ieHPar6F2eom4mDWS9-86" value="2" style="text;html=1;align=center;verticalAlign=middle;whiteSpace=wrap;rounded=0;fontStyle=1;fontSize=16;" vertex="1" parent="1">
          <mxGeometry x="1035.5" y="245" width="53" height="30" as="geometry" />
        </mxCell>
        <mxCell id="A5ieHPar6F2eom4mDWS9-87" value="1" style="text;html=1;align=center;verticalAlign=middle;whiteSpace=wrap;rounded=0;fontStyle=1;fontSize=16;" vertex="1" parent="1">
          <mxGeometry x="968" y="245" width="53" height="30" as="geometry" />
        </mxCell>
        <mxCell id="A5ieHPar6F2eom4mDWS9-88" value="3" style="text;html=1;align=center;verticalAlign=middle;whiteSpace=wrap;rounded=0;fontStyle=1;fontSize=16;" vertex="1" parent="1">
          <mxGeometry x="1102.5" y="245" width="53" height="30" as="geometry" />
        </mxCell>
        <mxCell id="A5ieHPar6F2eom4mDWS9-89" value="4" style="text;html=1;align=center;verticalAlign=middle;whiteSpace=wrap;rounded=0;fontStyle=1;fontSize=16;" vertex="1" parent="1">
          <mxGeometry x="1171.5" y="245" width="53" height="30" as="geometry" />
        </mxCell>
        <mxCell id="A5ieHPar6F2eom4mDWS9-90" value="-5" style="text;html=1;align=center;verticalAlign=middle;whiteSpace=wrap;rounded=0;fontStyle=1;fontSize=16;" vertex="1" parent="1">
          <mxGeometry x="897.75" y="160" width="53" height="30" as="geometry" />
        </mxCell>
        <mxCell id="A5ieHPar6F2eom4mDWS9-91" value="-3" style="text;html=1;align=center;verticalAlign=middle;whiteSpace=wrap;rounded=0;fontStyle=1;fontSize=16;" vertex="1" parent="1">
          <mxGeometry x="1035.25" y="160" width="53" height="30" as="geometry" />
        </mxCell>
        <mxCell id="A5ieHPar6F2eom4mDWS9-92" value="-4" style="text;html=1;align=center;verticalAlign=middle;whiteSpace=wrap;rounded=0;fontStyle=1;fontSize=16;" vertex="1" parent="1">
          <mxGeometry x="967.75" y="160" width="53" height="30" as="geometry" />
        </mxCell>
        <mxCell id="A5ieHPar6F2eom4mDWS9-93" value="-2" style="text;html=1;align=center;verticalAlign=middle;whiteSpace=wrap;rounded=0;fontStyle=1;fontSize=16;" vertex="1" parent="1">
          <mxGeometry x="1102.25" y="160" width="53" height="30" as="geometry" />
        </mxCell>
        <mxCell id="A5ieHPar6F2eom4mDWS9-94" value="-1" style="text;html=1;align=center;verticalAlign=middle;whiteSpace=wrap;rounded=0;fontStyle=1;fontSize=16;" vertex="1" parent="1">
          <mxGeometry x="1171.25" y="160" width="53" height="30" as="geometry" />
        </mxCell>
      </root>
    </mxGraphModel>
  </diagram>
</mxfile>
